<?xml version="1.0" encoding="utf-8"?>
<!-- Generator: Adobe Illustrator 19.0.0, SVG Export Plug-In . SVG Version: 6.00 Build 0)  -->
<svg version="1.1" id="Layer_1" xmlns="http://www.w3.org/2000/svg" xmlns:xlink="http://www.w3.org/1999/xlink" x="0px" y="0px"
	 viewBox="-205 298.6 200 196.4" style="enable-background:new -205 298.6 200 196.4;" xml:space="preserve">
<style type="text/css">
	.st0{fill:#1976D2;}
	.st1{fill:#FFB300;}
	.st2{fill:#FF8F00;}
	.st3{fill:#FFA000;}
	.st4{opacity:0.2;fill:url(#XMLID_2_);enable-background:new    ;}
	.st5{opacity:0.2;fill:url(#XMLID_3_);enable-background:new    ;}
	.st6{fill:#FFFFFF;}
	.st7{font-family:'RobotoCondensed-Bold';}
	.st8{font-size:46.1392px;}
	.st9{font-family:'RobotoCondensed-Regular';}
	.st10{font-size:20.1859px;}
</style>
<g id="XMLID_12176_">
	
		<image style="overflow:visible;enable-background:new    ;" width="247" height="270" id="XMLID_215_" xlink:href="B9EDB472.png"  transform="matrix(1 0 0 1 -228.5825 271.7342)">
	</image>
</g>
<g id="XMLID_8684_">
	<polygon id="XMLID_12172_" class="st0" points="-5,460 -36.1,463.9 -39.9,495 -114.6,420.3 -79.6,385.4 	"/>
	<polygon id="XMLID_12167_" class="st0" points="-205,460 -173.9,463.9 -170.1,495 -95.4,420.3 -130.4,385.4 	"/>
	<g id="XMLID_11794_">
		<path id="XMLID_12144_" class="st1" d="M-26.2,374.1c0,1-0.1,1.9-0.4,2.8c-1.7,6.8-8.8,12.7-10.9,19.1c-2.5,7.6,0.7,18.1-3.8,24.4
			c-4.6,6.4-15.6,6.5-22,11.2c-6.3,4.6-9.8,15-17.4,17.5c-4.8,1.5-10.3-0.6-15.7-2.3c-2.9-0.9-5.8-1.6-8.6-1.6
			c-2.2,0-4.4,0.5-6.7,1.1c-6.1,1.7-12.3,4.6-17.6,2.8c-7.6-2.5-11.1-12.9-17.4-17.5c-4.2-3-10.4-4.2-15.5-6.4
			c-0.5-0.2-1-0.5-1.5-0.7c-2-1-3.7-2.3-5-4c-1.5-2.1-2.2-4.7-2.5-7.5c0-0.1,0-0.2,0-0.3c-0.5-5.4,0.3-11.6-1.3-16.6
			c-1.4-4.4-5.2-8.5-8-12.9c-0.4-0.7-0.9-1.4-1.2-2.1c-1.2-2.2-2-4.5-2-7c0-8.1,8.8-14.7,11.2-22c2.4-7.6-0.7-18.1,3.8-24.4
			c4.6-6.4,15.6-6.5,22-11.2c6.3-4.6,9.8-15,17.4-17.5c7.3-2.4,16.3,3.9,24.3,3.9c0.4,0,0.8,0,1.3-0.1c1.3-0.1,2.6-0.3,4-0.7
			c6.6-1.6,13.4-5.1,19.1-3.2c5,1.6,8.2,6.7,11.6,11.2c0.1,0.1,0.1,0.1,0.2,0.2c1.7,2.3,3.5,4.5,5.6,6c1.4,1,3.1,1.8,4.8,2.5
			c0.5,0.2,1.1,0.4,1.6,0.6c5.8,2.1,12.3,3.5,15.6,8c4.6,6.3,1.4,16.8,3.8,24.4c1.4,4.2,4.8,8.1,7.6,12.2
			C-27.9,367.4-26.2,370.6-26.2,374.1z"/>
		<g id="XMLID_12139_">
			<path id="XMLID_172_" class="st2" d="M-46,374.1c0,0.5,0,1.1,0,1.6c-0.9,31.9-26.9,57.4-59,57.4s-58.2-25.6-59-57.4
				c0-0.5,0-1.1,0-1.6c0-32.6,26.4-59,59-59S-46,341.5-46,374.1z"/>
		</g>
		<g id="XMLID_11808_">
			<path id="XMLID_171_" class="st3" d="M-46,375.7c-0.9,31.9-26.9,57.4-59,57.4s-58.2-25.6-59-57.4c0.9-31.9,27-57.4,59-57.4
				C-72.9,318.3-46.8,343.8-46,375.7z"/>
		</g>
		
			<linearGradient id="XMLID_2_" gradientUnits="userSpaceOnUse" x1="-124.75" y1="17333.6289" x2="-124.75" y2="17222.4883" gradientTransform="matrix(1 0 0 1 0 -16923.7305)">
			<stop  offset="0" style="stop-color:#FFFFFF;stop-opacity:0"/>
			<stop  offset="1" style="stop-color:#FFFFFF"/>
		</linearGradient>
		<path id="XMLID_11807_" class="st4" d="M-69,310.4l-102.2,102.2c-0.5-5.4,0.3-11.6-1.3-16.6c-1.4-4.4-5.2-8.5-8-12.9l80.8-80.8
			c6.6-1.6,13.4-5.1,19.1-3.2C-75.7,300.7-72.5,305.8-69,310.4z"/>
		
			<linearGradient id="XMLID_3_" gradientUnits="userSpaceOnUse" x1="-96.8" y1="17370.2051" x2="-96.8" y2="17243.0566" gradientTransform="matrix(1 0 0 1 0 -16923.7305)">
			<stop  offset="0" style="stop-color:#FFFFFF;stop-opacity:0"/>
			<stop  offset="1" style="stop-color:#FFFFFF"/>
		</linearGradient>
		<path id="XMLID_11805_" class="st5" d="M-29.9,364.3l-81.8,81.8c-6.1,1.7-12.3,4.6-17.6,2.8c-7.6-2.5-11.1-12.9-17.4-17.5
			c-4.2-3-10.4-4.2-15.5-6.4c-0.5-0.2-1-0.5-1.5-0.7l105.2-105.2c0.5,0.2,1.1,0.4,1.6,0.6c5.8,2.1,12.3,3.5,15.6,8
			c4.6,6.3,1.4,16.8,3.8,24.4C-36.1,356.3-32.6,360.2-29.9,364.3z"/>
	</g>
	<g id="XMLID_8942_">
		<text transform="matrix(1 0 0 1 -128.3394 369.1166)" class="st6 st7 st8">12 </text>
		<text transform="matrix(1 0 0 1 -140.8394 389.5166)" class="st6 st9 st10">месяцев</text>
		<text transform="matrix(1 0 0 1 -142.8394 409.9166)" class="st6 st9 st10">гарантия</text>
	</g>
</g>
</svg>
