<?xml version="1.0" encoding="utf-8"?>
<!-- Generator: Adobe Illustrator 19.0.0, SVG Export Plug-In . SVG Version: 6.00 Build 0)  -->
<svg version="1.1" id="Layer_1" xmlns="http://www.w3.org/2000/svg" xmlns:xlink="http://www.w3.org/1999/xlink" x="0px" y="0px"
	 viewBox="0 0 520.4 74.6" style="enable-background:new 0 0 520.4 74.6;" xml:space="preserve">
<style type="text/css">
	.st0{fill:#FF8F00;}
	.st1{fill:#FFFFFF;}
</style>
<g id="XMLID_767_">
	<g id="XMLID_10741_">
		<g id="XMLID_225_">
			<path id="XMLID_243_" class="st0" d="M103.3,21.7c1.3,0,2.4,0.5,3.3,1.4c0.9,0.9,1.4,2.1,1.4,3.4c0,1.3-0.5,2.4-1.4,3.3
				c-0.9,0.9-2,1.4-3.3,1.4c-1.3,0-2.4-0.5-3.3-1.4c-0.9-0.9-1.4-2.1-1.4-3.4c0-1.3,0.5-2.4,1.4-3.3C100.9,22.2,102,21.7,103.3,21.7
				z M99.6,33.8h7.3V63h-7.3V33.8z"/>
			<path id="XMLID_240_" class="st0" d="M148.3,57.2l6.9,8.9h-8.9l-3.5-4.5c-2.9,1.6-6.1,2.4-9.7,2.4c-5.9,0-10.9-2-14.8-6.1
				c-3.9-4.1-5.9-9-5.9-14.6c0-3.8,0.9-7.3,2.7-10.4c1.8-3.2,4.3-5.7,7.5-7.5c3.2-1.9,6.6-2.8,10.3-2.8c5.6,0,10.4,2,14.5,6.1
				c4,4,6,9,6,14.8C153.5,48.7,151.8,53.4,148.3,57.2z M143.6,51.2c1.6-2.4,2.4-5,2.4-7.8c0-3.7-1.3-6.9-3.8-9.5
				c-2.5-2.6-5.6-3.9-9.2-3.9c-3.7,0-6.8,1.3-9.3,3.8c-2.5,2.5-3.7,5.8-3.7,9.7c0,4.4,1.6,7.8,4.7,10.4c2.5,2,5.2,3,8.4,3
				c1.8,0,3.5-0.4,5.1-1.1l-7.1-9.1h9L143.6,51.2z"/>
			<path id="XMLID_238_" class="st0" d="M159.8,33.8h7.4v14.1c0,2.7,0.2,4.6,0.6,5.7c0.4,1.1,1,1.9,1.8,2.5c0.8,0.6,1.9,0.9,3.1,0.9
				c1.2,0,2.3-0.3,3.1-0.9c0.9-0.6,1.5-1.4,1.9-2.6c0.3-0.8,0.5-2.6,0.5-5.4V33.8h7.3v12.4c0,5.1-0.4,8.6-1.2,10.5
				c-1,2.3-2.4,4.1-4.4,5.3c-1.9,1.2-4.4,1.8-7.3,1.8c-3.2,0-5.8-0.7-7.8-2.2c-2-1.4-3.4-3.4-4.2-6c-0.6-1.8-0.9-5-0.9-9.7V33.8z"/>
			<path id="XMLID_235_" class="st0" d="M195.7,21.7c1.3,0,2.4,0.5,3.3,1.4c0.9,0.9,1.4,2.1,1.4,3.4c0,1.3-0.5,2.4-1.4,3.3
				c-0.9,0.9-2,1.4-3.3,1.4c-1.3,0-2.4-0.5-3.3-1.4c-0.9-0.9-1.4-2.1-1.4-3.4c0-1.3,0.5-2.4,1.4-3.3
				C193.3,22.2,194.4,21.7,195.7,21.7z M192.1,33.8h7.3V63h-7.3V33.8z"/>
			<path id="XMLID_232_" class="st0" d="M213.3,33.8V37c1.3-1.3,2.8-2.3,4.3-3c1.5-0.7,3.2-1,4.9-1c3.8,0,7.1,1.4,9.7,4.3
				c2.7,2.9,4,6.6,4,11.1c0,4.4-1.4,8-4.1,10.9c-2.8,2.9-6,4.4-9.8,4.4c-1.7,0-3.3-0.3-4.7-0.9c-1.5-0.6-2.9-1.6-4.3-2.9v13.8h-7.3
				V33.8H213.3z M221.1,39.8c-2.3,0-4.2,0.8-5.8,2.4c-1.5,1.6-2.3,3.6-2.3,6.2c0,2.6,0.8,4.7,2.3,6.3c1.5,1.6,3.4,2.4,5.8,2.4
				c2.2,0,4.1-0.8,5.7-2.4c1.5-1.6,2.3-3.7,2.3-6.2c0-2.5-0.8-4.6-2.3-6.2C225.2,40.6,223.3,39.8,221.1,39.8z"/>
			<path id="XMLID_230_" class="st0" d="M260.3,37.9l-4.5,4.5c-1.8-1.8-3.5-2.7-5-2.7c-0.8,0-1.5,0.2-1.9,0.5
				c-0.5,0.3-0.7,0.8-0.7,1.3c0,0.4,0.1,0.8,0.4,1.1c0.3,0.3,1,0.8,2.2,1.4l2.7,1.3c2.8,1.4,4.8,2.8,5.8,4.3
				c1.1,1.5,1.6,3.2,1.6,5.1c0,2.6-1,4.8-2.9,6.5c-1.9,1.7-4.5,2.6-7.7,2.6c-4.3,0-7.7-1.7-10.2-5l4.5-4.9c0.9,1,1.9,1.8,3,2.4
				c1.2,0.6,2.2,0.9,3.1,0.9c1,0,1.7-0.2,2.3-0.7c0.6-0.5,0.9-1,0.9-1.6c0-1.1-1.1-2.2-3.2-3.3l-2.5-1.2c-4.7-2.4-7.1-5.4-7.1-8.9
				c0-2.3,0.9-4.3,2.7-5.9c1.8-1.6,4.1-2.5,6.8-2.5c1.9,0,3.7,0.4,5.4,1.2C257.7,35.1,259.1,36.3,260.3,37.9z"/>
			<path id="XMLID_228_" class="st0" d="M263.4,33.8h7.5l7.6,18.3l8.4-18.3h7.5L276,73.7h-7.6l6-12.9L263.4,33.8z"/>
			<path id="XMLID_226_" class="st0" d="M316.4,37.9l-4.5,4.5c-1.8-1.8-3.5-2.7-5-2.7c-0.8,0-1.5,0.2-1.9,0.5
				c-0.5,0.3-0.7,0.8-0.7,1.3c0,0.4,0.1,0.8,0.4,1.1c0.3,0.3,1,0.8,2.2,1.4l2.7,1.3c2.8,1.4,4.8,2.8,5.8,4.3
				c1.1,1.5,1.6,3.2,1.6,5.1c0,2.6-1,4.8-2.9,6.5c-1.9,1.7-4.5,2.6-7.7,2.6c-4.3,0-7.7-1.7-10.2-5l4.5-4.9c0.9,1,1.9,1.8,3,2.4
				c1.2,0.6,2.2,0.9,3.1,0.9c1,0,1.7-0.2,2.3-0.7c0.6-0.5,0.9-1,0.9-1.6c0-1.1-1.1-2.2-3.2-3.3l-2.5-1.2c-4.7-2.4-7.1-5.4-7.1-8.9
				c0-2.3,0.9-4.3,2.7-5.9c1.8-1.6,4.1-2.5,6.8-2.5c1.9,0,3.7,0.4,5.4,1.2C313.9,35.1,315.3,36.3,316.4,37.9z"/>
		</g>
	</g>
	<g id="XMLID_4926_">
		<g id="XMLID_10738_">
			<path id="XMLID_10739_" class="st1" d="M38,16.4c-11.1,0-20.1,9-20.1,20.1c0,2.3,0.4,4.4,1.1,6.5l3.1-3.1l1-1
				c-0.1-0.8-0.2-1.6-0.2-2.4c0-8.4,6.8-15.2,15.2-15.2s15.2,6.8,15.2,15.2c0,0.8-0.1,1.6-0.2,2.4l1,1l3.1,3.1
				c0.7-2,1.1-4.2,1.1-6.5C58.2,25.4,49.1,16.4,38,16.4z"/>
		</g>
		<g id="XMLID_10734_">
			<path id="XMLID_10735_" class="st1" d="M38,9.9c14.7,0,26.6,11.9,26.6,26.6S52.7,63.2,38,63.2S11.4,51.2,11.4,36.5
				S23.3,9.9,38,9.9 M38,0C17.9,0,1.5,16.4,1.5,36.5S17.9,73.1,38,73.1c20.1,0,36.5-16.4,36.5-36.5S58.2,0,38,0L38,0z"/>
		</g>
		<g id="XMLID_10727_">
			<path id="XMLID_69_" class="st0" d="M32.4,50.2L8.1,74.6H0v-8l20.6-20.6l3.7-3.7C25.9,45.8,28.8,48.7,32.4,50.2z"/>
		</g>
		<circle id="XMLID_4936_" class="st0" cx="38" cy="36.5" r="8.7"/>
		<g id="XMLID_4927_">
			<path id="XMLID_61_" class="st1" d="M43.6,50.2L68,74.6H76v-8L55.4,45.9l-3.7-3.7C50.2,45.8,47.3,48.7,43.6,50.2z"/>
		</g>
	</g>
	<g id="XMLID_10973_">
		<path id="XMLID_10974_" class="st1" d="M335.4,22.9h4v36.3h15.5V63h-19.5V22.9z"/>
		<path id="XMLID_10976_" class="st1" d="M361.9,21.1c0.9,0,1.6,0.3,2.2,0.9s0.9,1.4,0.9,2.2c0,0.9-0.3,1.6-0.9,2.2
			c-0.6,0.6-1.4,0.9-2.2,0.9c-0.9,0-1.6-0.3-2.2-0.9c-0.6-0.6-0.9-1.4-0.9-2.2c0-0.9,0.3-1.6,0.9-2.2S361.1,21.1,361.9,21.1z
			 M360,33.3h3.8V63H360V33.3z"/>
		<path id="XMLID_10979_" class="st1" d="M371.8,33.3h3.8v5.1c1.3-1.9,2.7-3.3,4.1-4.1c1.9-1.2,4-1.7,6.1-1.7c1.4,0,2.8,0.3,4.1,0.8
			c1.3,0.6,2.4,1.3,3.2,2.3c0.8,0.9,1.5,2.3,2.1,4c1.3-2.3,2.9-4.1,4.8-5.3c1.9-1.2,4-1.8,6.2-1.8c2.1,0,3.9,0.5,5.4,1.6
			c1.6,1,2.7,2.5,3.5,4.3s1.1,4.6,1.1,8.4V63h-3.9V46.8c0-3.2-0.2-5.4-0.7-6.6c-0.5-1.2-1.2-2.2-2.3-2.9c-1.1-0.7-2.4-1.1-3.9-1.1
			c-1.8,0-3.5,0.5-5.1,1.6s-2.7,2.5-3.4,4.4c-0.7,1.8-1.1,4.9-1.1,9.1V63H392V47.8c0-3.6-0.2-6-0.7-7.3s-1.2-2.3-2.3-3.1
			s-2.4-1.2-4-1.2c-1.8,0-3.4,0.5-5,1.6c-1.5,1.1-2.7,2.5-3.4,4.3c-0.7,1.8-1.1,4.6-1.1,8.3V63h-3.8V33.3z"/>
		<path id="XMLID_10981_" class="st1" d="M425.6,21.1c0.9,0,1.6,0.3,2.2,0.9s0.9,1.4,0.9,2.2c0,0.9-0.3,1.6-0.9,2.2
			c-0.6,0.6-1.4,0.9-2.2,0.9c-0.9,0-1.6-0.3-2.2-0.9c-0.6-0.6-0.9-1.4-0.9-2.2c0-0.9,0.3-1.6,0.9-2.2S424.7,21.1,425.6,21.1z
			 M423.7,33.3h3.8V63h-3.8V33.3z"/>
		<path id="XMLID_10984_" class="st1" d="M438.8,22.3h3.8v11h6.1v3.3h-6.1V63h-3.8V36.6h-5.2v-3.3h5.2V22.3z"/>
		<path id="XMLID_10986_" class="st1" d="M479.4,53.2l3.2,1.7c-1.1,2.1-2.3,3.7-3.7,5c-1.4,1.3-2.9,2.2-4.7,2.9
			c-1.7,0.7-3.7,1-5.9,1c-4.8,0-8.6-1.6-11.4-4.8s-4.1-6.8-4.1-10.8c0-3.8,1.2-7.1,3.5-10.1c2.9-3.7,6.9-5.6,11.8-5.6
			c5.1,0,9.1,1.9,12.1,5.8c2.1,2.7,3.2,6.1,3.3,10.2h-26.7c0.1,3.4,1.2,6.3,3.3,8.5s4.8,3.3,7.9,3.3c1.5,0,3-0.3,4.4-0.8
			c1.4-0.5,2.6-1.2,3.6-2.1C477.1,56.5,478.2,55.1,479.4,53.2z M479.4,45.2c-0.5-2-1.3-3.7-2.2-4.9c-1-1.2-2.3-2.2-3.9-2.9
			s-3.3-1.1-5.1-1.1c-2.9,0-5.4,0.9-7.5,2.8c-1.5,1.4-2.7,3.4-3.5,6.1H479.4z"/>
		<path id="XMLID_10989_" class="st1" d="M520.4,21.9V63h-3.8v-5.1c-1.6,1.9-3.4,3.4-5.4,4.4c-2,1-4.2,1.5-6.5,1.5
			c-4.2,0-7.8-1.5-10.8-4.6c-3-3-4.5-6.8-4.5-11.1c0-4.3,1.5-7.9,4.5-11c3-3,6.6-4.6,10.8-4.6c2.4,0,4.6,0.5,6.6,1.6
			c2,1,3.7,2.6,5.2,4.7V21.9H520.4z M505.1,36.2c-2.1,0-4.1,0.5-5.9,1.6c-1.8,1-3.2,2.5-4.3,4.4c-1.1,1.9-1.6,3.9-1.6,6
			c0,2.1,0.5,4.1,1.6,6c1.1,1.9,2.5,3.4,4.3,4.5c1.8,1.1,3.8,1.6,5.8,1.6c2.1,0,4.1-0.5,5.9-1.6c1.9-1.1,3.3-2.5,4.3-4.3
			c1-1.8,1.5-3.8,1.5-6.1c0-3.4-1.1-6.3-3.4-8.6C511.2,37.4,508.4,36.2,505.1,36.2z"/>
	</g>
</g>
</svg>
