<?xml version="1.0" encoding="utf-8"?>
<!-- Generator: Adobe Illustrator 19.0.0, SVG Export Plug-In . SVG Version: 6.00 Build 0)  -->
<svg version="1.1" id="Layer_1" xmlns="http://www.w3.org/2000/svg" xmlns:xlink="http://www.w3.org/1999/xlink" x="0px" y="0px"
	 viewBox="0 0 100 100" style="enable-background:new 0 0 100 100;" xml:space="preserve">
<style type="text/css">
	.st0{opacity:5.000000e-002;fill:#1A1A1A;}
	.st1{fill:#FFFFFF;}
</style>
<g id="XMLID_10786_">
	<path id="XMLID_10799_" class="st0" d="M50,100.1c-27.6,0-50-22.4-50-50s22.4-50,50-50c27.6,0,50,22.4,50,50c0,13.7,0,50,0,50
		S63.9,100.1,50,100.1z"/>
	<path id="XMLID_10796_" class="st0" d="M50,82.6c-17.9,0-32.5-14.5-32.5-32.5S32.1,17.7,50,17.7s32.5,14.5,32.5,32.5
		c0,10.3,0,32.5,0,32.5S57.6,82.6,50,82.6z"/>
	<g id="XMLID_11020_">
		<g id="XMLID_26_">
			<path id="XMLID_27_" class="st1" d="M59.9,65.6H42.3v-4.1l8.1-10.3c0.6-0.8,1.1-1.5,1.4-2.2s0.7-1.2,0.9-1.8s0.4-1.1,0.5-1.5
				s0.1-0.9,0.1-1.4c0-1.3-0.2-2.4-0.7-3.1s-1.1-1.1-2-1.1c-0.5,0-1,0.1-1.4,0.4s-0.7,0.6-1,1c-0.3,0.4-0.5,1-0.6,1.6
				s-0.2,1.3-0.2,2h-5.8c0-1.4,0.2-2.6,0.6-3.8s1-2.2,1.8-3.1s1.7-1.6,2.8-2.1s2.4-0.8,3.8-0.8c1.4,0,2.6,0.2,3.6,0.6
				c1,0.4,1.9,0.9,2.6,1.7s1.2,1.6,1.6,2.7s0.5,2.2,0.5,3.5c0,1-0.1,2-0.4,2.9c-0.3,0.9-0.6,1.9-1.1,2.8s-1.1,1.9-1.8,2.8
				c-0.7,1-1.5,1.9-2.4,3l-3.8,5.5h10.2V65.6z"/>
		</g>
	</g>
</g>
</svg>
