<?xml version="1.0" encoding="utf-8"?>
<!-- Generator: Adobe Illustrator 19.0.0, SVG Export Plug-In . SVG Version: 6.00 Build 0)  -->
<svg version="1.1" id="Layer_1" xmlns="http://www.w3.org/2000/svg" xmlns:xlink="http://www.w3.org/1999/xlink" x="0px" y="0px"
	 viewBox="0 0 100 100" style="enable-background:new 0 0 100 100;" xml:space="preserve">
<style type="text/css">
	.st0{opacity:7.000000e-002;fill:#1A1A1A;}
	.st1{fill:#FAFCF8;}
</style>
<g id="XMLID_10784_">
	<path id="XMLID_10791_" class="st0" d="M100,50c0,27.6-22.4,50-50,50S0,77.6,0,50S22.4,0,50,0c13.7,0,50,0,50,0S100,36.1,100,50z"
		/>
	<path id="XMLID_10788_" class="st0" d="M82.5,50c0,17.9-14.5,32.5-32.5,32.5S17.5,67.9,17.5,50S32.1,17.5,50,17.5
		c10.3,0,32.5,0,32.5,0S82.5,42.4,82.5,50z"/>
	<g id="XMLID_11017_">
		<g id="XMLID_26_">
			<path id="XMLID_27_" class="st1" d="M55.5,65.5h-6.4v-25l-6.2,2.4v-5.3l11.9-4.9h0.7V65.5z"/>
		</g>
	</g>
</g>
</svg>
