<?xml version="1.0" encoding="utf-8"?>
<!-- Generator: Adobe Illustrator 19.0.0, SVG Export Plug-In . SVG Version: 6.00 Build 0)  -->
<svg version="1.1" id="Layer_1" xmlns="http://www.w3.org/2000/svg" xmlns:xlink="http://www.w3.org/1999/xlink" x="0px" y="0px"
	 viewBox="0 0 100 100" style="enable-background:new 0 0 100 100;" xml:space="preserve">
<style type="text/css">
	.st0{opacity:8.000000e-002;fill:#4D4D4D;}
	.st1{fill:#FFFFFF;}
</style>
<g id="XMLID_10794_">
	<path id="XMLID_10807_" class="st0" d="M100,50.1c0,27.6-22.4,50-50,50c-10.4,0-50,0-50,0s0-32.7,0-50c0-27.6,22.4-50,50-50
		S100,22.5,100,50.1z"/>
	<path id="XMLID_10806_" class="st0" d="M82.5,50.1c0,17.9-14.5,32.5-32.5,32.5c-8.5,0-32.5,0-32.5,0s0-23.1,0-32.5
		c0-17.9,14.5-32.5,32.5-32.5S82.5,32.2,82.5,50.1z"/>
	<g id="XMLID_10785_">
		<g id="XMLID_25_">
			<path id="XMLID_26_" class="st1" d="M46.5,46h2.8c1.1,0,1.8-0.4,2.3-1.1c0.5-0.7,0.7-1.7,0.7-3c0-0.5-0.1-1-0.2-1.5
				c-0.1-0.5-0.3-0.9-0.5-1.2c-0.2-0.3-0.5-0.6-0.9-0.8s-0.8-0.3-1.2-0.3c-0.4,0-0.7,0.1-1.1,0.2c-0.3,0.2-0.6,0.4-0.9,0.7
				s-0.4,0.6-0.6,1s-0.2,0.9-0.2,1.4H41c0-1.2,0.2-2.3,0.7-3.4c0.4-1,1-1.9,1.8-2.6c0.8-0.7,1.6-1.3,2.7-1.6c1-0.4,2.1-0.6,3.3-0.6
				c1.3,0,2.5,0.2,3.6,0.5c1.1,0.4,2,0.9,2.8,1.6c0.8,0.7,1.4,1.6,1.8,2.7c0.4,1.1,0.6,2.3,0.6,3.7c0,0.7-0.1,1.3-0.3,1.9
				c-0.2,0.6-0.4,1.2-0.7,1.8c-0.3,0.6-0.7,1.1-1.2,1.5c-0.5,0.5-1,0.9-1.6,1.2c1.4,0.6,2.5,1.5,3.1,2.7c0.7,1.2,1,2.6,1,4.3
				c0,1.4-0.2,2.6-0.7,3.7c-0.5,1.1-1.1,2-1.9,2.8c-0.8,0.7-1.8,1.3-2.9,1.7c-1.1,0.4-2.3,0.6-3.6,0.6c-1.1,0-2.2-0.2-3.2-0.5
				c-1-0.3-1.9-0.9-2.7-1.6c-0.8-0.7-1.4-1.6-1.9-2.7s-0.7-2.3-0.7-3.8h5.8c0,0.5,0.1,1,0.2,1.5c0.2,0.5,0.4,0.9,0.6,1.2
				c0.3,0.3,0.6,0.6,0.9,0.8c0.4,0.2,0.8,0.3,1.2,0.3c0.5,0,1-0.1,1.4-0.3s0.7-0.5,1-0.8c0.3-0.4,0.5-0.8,0.6-1.3
				c0.2-0.5,0.2-1.1,0.2-1.7c0-1.6-0.3-2.7-0.9-3.4c-0.6-0.7-1.5-1-2.6-1h-2.8V46z"/>
		</g>
	</g>
</g>
</svg>
