<?xml version="1.0" encoding="utf-8"?>
<!-- Generator: Adobe Illustrator 19.0.0, SVG Export Plug-In . SVG Version: 6.00 Build 0)  -->
<svg version="1.1" id="Layer_1" xmlns="http://www.w3.org/2000/svg" xmlns:xlink="http://www.w3.org/1999/xlink" x="0px" y="0px"
	 viewBox="0 0 100 100" style="enable-background:new 0 0 100 100;" xml:space="preserve">
<style type="text/css">
	.st0{fill:#DADEE6;}
	.st1{fill:#95A5BD;}
	.st2{fill:#7D90AD;}
	.st3{fill:#FFB300;}
	.st4{fill:none;stroke:#343D4F;stroke-width:2;stroke-miterlimit:10;}
	.st5{fill:#FFFFFF;}
	.st6{opacity:0.5;fill:none;stroke:#FFFFFF;stroke-width:2;stroke-miterlimit:10;}
</style>
<circle id="XMLID_492_" class="st0" cx="50" cy="50" r="50"/>
<g id="XMLID_489_">
	<path id="XMLID_508_" class="st1" d="M78.2,50c0,3-0.5,5.9-1.3,8.6C73.2,69.9,62.6,78.2,50,78.2c-12.6,0-23.2-8.3-26.9-19.6
		c-0.9-2.7-1.3-5.6-1.3-8.6c0-15.6,12.6-28.2,28.2-28.2C65.6,21.8,78.2,34.4,78.2,50z"/>
	<path id="XMLID_506_" class="st2" d="M76.9,58.6C73.2,69.9,62.6,78.2,50,78.2c-12.6,0-23.2-8.3-26.9-19.6
		C26.8,47.2,37.4,38.9,50,38.9C62.6,38.9,73.2,47.2,76.9,58.6z"/>
	<path id="XMLID_487_" class="st3" d="M53.4,27.8c-1.1-0.2-2.2-0.3-3.4-0.3c-12.4,0-22.4,10-22.4,22.4c0,5.3,1.8,10.1,4.8,13.9
		c4.1-5.2,10.5-8.6,17.6-8.6c7.1,0,13.5,3.4,17.6,8.6c3-3.8,4.8-8.6,4.8-13.9c0-6.7-3-12.7-7.7-16.9C59.4,28.3,53.4,27.8,53.4,27.8z
		"/>
	<line id="XMLID_485_" class="st4" x1="41.3" y1="63.3" x2="58.7" y2="63.3"/>
	<line id="XMLID_484_" class="st4" x1="53.2" y1="68.3" x2="57" y2="68.3"/>
	<line id="XMLID_483_" class="st4" x1="43" y1="68.3" x2="50" y2="68.3"/>
	<path id="XMLID_482_" class="st5" d="M47.9,55.3c0.2-0.4,6.3-14.6,6.3-14.6l0.5,15.2"/>
	<circle id="XMLID_496_" class="st4" cx="50" cy="50" r="28.2"/>
	<path id="XMLID_517_" class="st4" d="M64.8,33.1c-1-0.9-2.1-1.7-3.2-2.3"/>
	<path id="XMLID_493_" class="st4" d="M58.3,29.1c-2.8-1.1-4.9-1.3-4.9-1.3c-1.1-0.2-2.2-0.3-3.4-0.3c-12.4,0-22.4,10-22.4,22.4
		c0,5.3,1.8,10.1,4.8,13.9c4.1-5.2,10.5-8.6,17.6-8.6c7.1,0,13.5,3.4,17.6,8.6c3-3.8,4.8-8.6,4.8-13.9c0-5.8-2.2-11-5.8-15"/>
	<path id="XMLID_491_" class="st4" d="M47.9,55.3c0.2-0.4,6.3-14.6,6.3-14.6l0.5,15.2"/>
	<line id="XMLID_481_" class="st6" x1="50" y1="34.9" x2="50" y2="32.4"/>
	<line id="XMLID_480_" class="st6" x1="44.2" y1="36" x2="43.3" y2="33.8"/>
	<line id="XMLID_470_" class="st6" x1="55.8" y1="36" x2="56.7" y2="33.8"/>
	<line id="XMLID_463_" class="st6" x1="34.9" y1="50" x2="32.4" y2="50"/>
	<line id="XMLID_462_" class="st6" x1="67.6" y1="50" x2="65.1" y2="50"/>
	<line id="XMLID_461_" class="st6" x1="36" y1="55.8" x2="33.8" y2="56.7"/>
	<line id="XMLID_460_" class="st6" x1="66.2" y1="43.3" x2="64" y2="44.2"/>
	<line id="XMLID_454_" class="st6" x1="62.4" y1="37.6" x2="60.7" y2="39.3"/>
	<line id="XMLID_446_" class="st6" x1="39.3" y1="39.3" x2="37.6" y2="37.6"/>
	<line id="XMLID_442_" class="st6" x1="36" y1="44.2" x2="33.8" y2="43.3"/>
	<line id="XMLID_381_" class="st6" x1="66.2" y1="56.7" x2="64" y2="55.8"/>
</g>
</svg>
