<?xml version="1.0" encoding="utf-8"?>
<!-- Generator: Adobe Illustrator 19.0.0, SVG Export Plug-In . SVG Version: 6.00 Build 0)  -->
<svg version="1.1" id="Layer_1" xmlns="http://www.w3.org/2000/svg" xmlns:xlink="http://www.w3.org/1999/xlink" x="0px" y="0px"
	 viewBox="0 0 100 100" style="enable-background:new 0 0 100 100;" xml:space="preserve">
<style type="text/css">
	.st0{fill:#DADEE6;}
	.st1{fill:#FFB300;}
	.st2{fill:#7D90AD;}
	.st3{fill:#576988;}
	.st4{fill:#46556D;}
	.st5{fill:none;stroke:#343D4F;stroke-width:2;stroke-miterlimit:10;}
	.st6{fill:#FF9C00;}
	.st7{opacity:0.2;fill:#46556D;}
	.st8{opacity:0.3;fill:none;stroke:#FFFFFF;stroke-width:2;stroke-miterlimit:10;}
</style>
<circle id="XMLID_501_" class="st0" cx="50" cy="50.2" r="50"/>
<g id="XMLID_490_">
	<path id="XMLID_478_" class="st1" d="M75.9,24.2v30.4l-18.9-3.9H43.5V59L28,57.5c-2.9-0.3-5-2.7-5-5.5V40c0-2.9,2.2-5.3,5-5.5
		L43.5,33L56,31.8L71.8,22C73.5,20.9,75.9,22.1,75.9,24.2z"/>
	<path id="XMLID_475_" class="st2" d="M43.5,33v26L28,57.5c-2.9-0.3-5-2.7-5-5.5V40c0-2.9,2.2-5.3,5-5.5L43.5,33z"/>
	<path id="XMLID_445_" class="st3" d="M30.4,57.8l5.1,15.9c0.4,1.2,1.5,2,2.8,2h1c1.7,0,3.1-1.5,2.9-3.3l-1.6-13.7L30.4,57.8z"/>
	<path id="XMLID_444_" class="st4" d="M41.2,63.7h3.8c1.4,0,2.5-1.1,2.5-2.5v-1.9l-6.9-0.6L41.2,63.7z"/>
	<path id="XMLID_443_" class="st2" d="M77.5,41.1l-1.6-0.7v10.3l1.6-0.7c1.8-0.8,2.9-2.5,2.9-4.5v0C80.4,43.6,79.2,41.8,77.5,41.1z"
		/>
	<path id="XMLID_459_" class="st5" d="M77.5,41.1l-1.6-0.7v10.3l1.6-0.7c1.8-0.8,2.9-2.5,2.9-4.5v0C80.4,43.6,79.2,41.8,77.5,41.1z"
		/>
	<path id="XMLID_473_" class="st6" d="M75.9,54.6v13.2c0,2.1-2.3,3.4-4.1,2.3L56,60.2L43.5,59v-8.3h13.4L75.9,54.6z"/>
	<path id="XMLID_472_" class="st7" d="M43.5,50.7V59L28,57.5c-2.9-0.3-5-2.7-5-5.5v-1.3H43.5z"/>
	<line id="XMLID_419_" class="st5" x1="46.1" y1="35.4" x2="50" y2="35.4"/>
	<line id="XMLID_385_" class="st5" x1="46.1" y1="40.6" x2="50" y2="40.6"/>
	<line id="XMLID_384_" class="st5" x1="46.1" y1="45.8" x2="50" y2="45.8"/>
	<line id="XMLID_383_" class="st5" x1="46.1" y1="51" x2="50" y2="51"/>
	<line id="XMLID_382_" class="st5" x1="46.1" y1="56.2" x2="50" y2="56.2"/>
	<path id="XMLID_456_" class="st5" d="M30.4,57.8l5.1,15.9c0.4,1.2,1.5,2,2.8,2h1c1.7,0,3.1-1.5,2.9-3.3l-1.6-13.7L30.4,57.8z"/>
	<path id="XMLID_455_" class="st5" d="M41.2,63.7h3.8c1.4,0,2.5-1.1,2.5-2.5v-1.9l-6.9-0.6L41.2,63.7z"/>
	<line id="XMLID_453_" class="st8" x1="69" y1="23.7" x2="69" y2="40.3"/>
	<line id="XMLID_452_" class="st8" x1="69" y1="45.5" x2="69" y2="51.2"/>
	<path id="XMLID_457_" class="st5" d="M75.9,24.2v43.6c0,2.1-2.3,3.4-4.1,2.3L56,60.2L43.5,59L28,57.5c-2.9-0.3-5-2.7-5-5.5V40
		c0-2.9,2.2-5.3,5-5.5L43.5,33L56,31.8L71.8,22C73.5,20.9,75.9,22.1,75.9,24.2z"/>
</g>
</svg>
