<?xml version="1.0" encoding="utf-8"?>
<!-- Generator: Adobe Illustrator 19.0.0, SVG Export Plug-In . SVG Version: 6.00 Build 0)  -->
<svg version="1.1" id="Layer_1" xmlns="http://www.w3.org/2000/svg" xmlns:xlink="http://www.w3.org/1999/xlink" x="0px" y="0px"
	 viewBox="0 0 128 128" style="enable-background:new 0 0 128 128;" xml:space="preserve">
<style type="text/css">
	.st0{fill:#DADEE6;}
	.st1{fill:#7D90AD;}
	.st2{fill:#95A5BD;}
	.st3{fill:#AFBBCD;}
	.st4{fill:none;stroke:#343D4F;stroke-width:2;stroke-linecap:round;stroke-miterlimit:10;stroke-dasharray:4,5;}
	.st5{fill:none;stroke:#343D4F;stroke-width:2;stroke-miterlimit:10;}
	.st6{fill:none;stroke:#343D4F;stroke-width:7;stroke-linecap:round;stroke-miterlimit:10;}
	.st7{fill:#FFB300;}
	.st8{fill:#343D4F;}
	.st9{fill:#FF9C00;}
	.st10{opacity:0.5;fill:none;stroke:#DADEE6;stroke-width:2;stroke-linecap:round;stroke-miterlimit:10;}
</style>
<g id="XMLID_1_">
	<circle id="XMLID_272_" class="st0" cx="64" cy="64" r="64"/>
	<g id="XMLID_2_">
		<polygon id="XMLID_198_" class="st1" points="49.3,89.1 23,98.6 23,40.6 49.3,31 		"/>
		<polygon id="XMLID_197_" class="st1" points="101.8,89.1 75.5,98.6 75.5,40.6 101.8,31 		"/>
		<polygon id="XMLID_196_" class="st2" points="49.3,89.1 75.5,98.6 75.5,40.6 49.3,31 		"/>
		<polygon id="XMLID_195_" class="st2" points="49.3,83.6 28.5,91.1 28.5,44 49.3,36.5 		"/>
		<polygon id="XMLID_194_" class="st2" points="96.4,85.6 75.5,93.2 75.5,46.1 96.4,38.5 		"/>
		<polygon id="XMLID_193_" class="st3" points="49.3,83.6 75.5,93.2 75.5,46.1 49.3,36.5 		"/>
		<polyline id="XMLID_6_" class="st4" points="30.3,61 32.6,59.3 40.6,61 47.5,54.9 56.4,63.5 51.9,70.5 61.2,77.5 77.4,65.5 
			89.5,71.7 95.1,63.8 86.6,46 96.4,39.1 		"/>
	</g>
	<polygon id="XMLID_209_" class="st5" points="101.8,31 101.8,89.1 75.5,98.6 49.3,89.1 23,98.6 23,40.6 49.3,31 75.5,40.6 	"/>
	<line id="XMLID_30_" class="st6" x1="75.5" y1="74.3" x2="99.7" y2="98.5"/>
	<g id="XMLID_5_">
		<path id="XMLID_45_" class="st7" d="M75.5,91.9c-9.7,0-17.6-7.9-17.6-17.6c0-9.7,7.9-17.6,17.6-17.6c9.7,0,17.6,7.9,17.6,17.6
			C93.2,84,85.3,91.9,75.5,91.9z"/>
		<g id="XMLID_41_">
			<path id="XMLID_42_" class="st8" d="M75.5,57.7c9.2,0,16.6,7.5,16.6,16.6s-7.5,16.6-16.6,16.6s-16.6-7.5-16.6-16.6
				S66.4,57.7,75.5,57.7 M75.5,55.7c-10.3,0-18.6,8.3-18.6,18.6s8.3,18.6,18.6,18.6s18.6-8.3,18.6-18.6S85.8,55.7,75.5,55.7
				L75.5,55.7z"/>
		</g>
	</g>
	<g id="XMLID_25_">
		<path id="XMLID_35_" class="st9" d="M85.5,74c0,7.6-7.9,14.7-10,14.7c-0.8,0-2.3-0.8-3.9-2.3h0c0,0-0.1-0.1-0.1-0.1
			c-1.2-1.1-2.4-2.5-3.5-4.2c-0.3-0.4-0.5-0.8-0.7-1.2c-0.1-0.2-0.2-0.5-0.3-0.7c-0.1-0.3-0.3-0.6-0.4-0.9c-0.3-0.7-0.5-1.5-0.7-2.2
			c-0.1-0.5-0.2-1-0.3-1.4c-0.1-0.6-0.1-1.1-0.1-1.7c0-5.5,4.5-10,10-10c0.6,0,1.1,0.1,1.7,0.1c0.5,0.1,0.9,0.2,1.4,0.3
			c0.7,0.2,1.4,0.5,2,0.9c0.3,0.2,0.5,0.3,0.8,0.5c0.2,0.1,0.4,0.3,0.6,0.5c0.3,0.3,0.7,0.6,1,1c1.3,1.4,2.2,3.2,2.5,5.2
			c0,0.1,0,0.1,0,0.2C85.5,73.1,85.5,73.6,85.5,74z"/>
	</g>
	<g id="XMLID_32_">
		<g id="XMLID_48_">
			<path id="XMLID_49_" class="st8" d="M75.5,57.7c9.2,0,16.6,7.5,16.6,16.6s-7.5,16.6-16.6,16.6s-16.6-7.5-16.6-16.6
				S66.4,57.7,75.5,57.7 M75.5,55.7c-10.3,0-18.6,8.3-18.6,18.6s8.3,18.6,18.6,18.6s18.6-8.3,18.6-18.6S85.8,55.7,75.5,55.7
				L75.5,55.7z"/>
		</g>
	</g>
	<path id="XMLID_154_" class="st10" d="M66.5,64.5c2.3-2.2,5.4-3.6,8.8-3.6"/>
	<path id="XMLID_156_" class="st10" d="M63.3,69.8c0.2-0.7,0.5-1.3,0.8-1.9"/>
	<g id="XMLID_37_">
		<path id="XMLID_160_" class="st8" d="M73.6,80.9c0-1.3,1-1.9,1.9-1.9c1,0,2,0.6,2,1.9c0,1.3-1,1.9-2,1.9
			C74.6,82.8,73.6,82.2,73.6,80.9z M75.3,67.5h0.5c0.9,0,1.7,0.8,1.6,1.7l-0.2,6.5c0,0.9-0.8,1.6-1.6,1.6l0,0
			c-0.9,0-1.6-0.7-1.6-1.6l-0.2-6.5C73.7,68.2,74.4,67.5,75.3,67.5z"/>
	</g>
</g>
</svg>
