<?xml version="1.0" encoding="utf-8"?>
<!-- Generator: Adobe Illustrator 19.0.0, SVG Export Plug-In . SVG Version: 6.00 Build 0)  -->
<svg version="1.1" id="Layer_1" xmlns="http://www.w3.org/2000/svg" xmlns:xlink="http://www.w3.org/1999/xlink" x="0px" y="0px"
	 viewBox="0 0 100 100" style="enable-background:new 0 0 100 100;" xml:space="preserve">
<style type="text/css">
	.st0{fill:#DADEE6;}
	.st1{fill:#576988;}
	.st2{fill:#7D90AD;}
	.st3{fill:#95A5BD;}
	.st4{fill:none;stroke:#E60000;stroke-miterlimit:10;}
	.st5{fill:#FFB300;}
	.st6{opacity:0.5;fill:none;stroke:#FFFFFF;stroke-width:2;stroke-miterlimit:10;}
	.st7{fill:none;stroke:#343D4F;stroke-width:2;stroke-miterlimit:10;}
</style>
<g>
	<circle id="XMLID_605_" class="st0" cx="50" cy="50" r="50"/>
	<g id="XMLID_626_">
		<path id="XMLID_625_" class="st1" d="M68,31.3l-4.3,2.4c-0.6,0.6-1.4,1.1-2.3,1.3L56.4,38L55,31.3v0L54.9,31
			c-0.1-0.3-0.1-0.6-0.1-1c0-2.9,2.4-5.3,5.3-5.3c1.8,0,3.4,0.9,4.3,2.3L68,31.3z"/>
		<path id="XMLID_624_" class="st2" d="M74.2,37.2l-6.1,3.5c-0.9,0.9-2,1.5-3.3,1.9l-7.2,4.1l-2-9.5v0l-0.1-0.5
			c-0.1-0.4-0.1-0.9-0.1-1.4c0-4.2,3.4-7.5,7.5-7.5c2.5,0,4.8,1.3,6.2,3.2L74.2,37.2z"/>
		<path id="XMLID_619_" class="st3" d="M84,47.1l-9.1,5.2c-1.4,1.3-3.1,2.3-5,2.8l-10.8,6.2l-3-14.2v0L56,46.2
			c-0.1-0.7-0.2-1.3-0.2-2c0-6.2,5-11.3,11.3-11.3c3.8,0,7.2,1.9,9.2,4.8L84,47.1z"/>
		<path id="XMLID_641_" class="st1" d="M31.9,31.3l4.3,2.4c0.6,0.6,1.4,1.1,2.3,1.3l5.1,2.9l1.4-6.7v0l0.1-0.4
			c0.1-0.3,0.1-0.6,0.1-1c0-2.9-2.4-5.3-5.3-5.3c-1.8,0-3.4,0.9-4.3,2.3L31.9,31.3z"/>
		<path id="XMLID_632_" class="st2" d="M25.8,37.2l6.1,3.5c0.9,0.9,2,1.5,3.3,1.9l7.2,4.1l2-9.5v0l0.1-0.5c0.1-0.4,0.1-0.9,0.1-1.4
			c0-4.2-3.4-7.5-7.5-7.5c-2.5,0-4.8,1.3-6.2,3.2L25.8,37.2z"/>
		<path id="XMLID_629_" class="st3" d="M15.9,47.1l9.1,5.2c1.4,1.3,3.1,2.3,5,2.8l10.8,6.2l3-14.2v0l0.2-0.8c0.1-0.7,0.2-1.3,0.2-2
			c0-6.2-5-11.3-11.3-11.3c-3.8,0-7.2,1.9-9.2,4.8L15.9,47.1z"/>
		<path id="XMLID_628_" class="st4" d="M44,46"/>
		<circle id="XMLID_611_" class="st2" cx="26.8" cy="56.9" r="14.6"/>
		<circle id="XMLID_610_" class="st5" cx="26.8" cy="56.9" r="11.3"/>
		<path id="XMLID_609_" class="st6" d="M19.8,54.2c-0.3,0.8-0.5,1.7-0.5,2.6c0,2.4,1.2,4.6,2.9,6"/>
		<path id="XMLID_608_" class="st6" d="M25.8,49.4c-2,0.3-3.8,1.3-5,2.8"/>
		<path id="XMLID_617_" class="st4" d="M56,46"/>
		<circle id="XMLID_620_" class="st2" cx="73.2" cy="56.9" r="14.6"/>
		<circle id="XMLID_623_" class="st5" cx="73.2" cy="56.9" r="11.3"/>
		<path id="XMLID_622_" class="st6" d="M80.2,54.2c0.3,0.8,0.5,1.7,0.5,2.6c0,2.4-1.2,4.6-2.9,6"/>
		<path id="XMLID_621_" class="st6" d="M74.2,49.4c2,0.3,3.8,1.3,5,2.8"/>
		<path id="XMLID_615_" class="st2" d="M42.1,46.8c-0.3-3.1-3.9-5.6-3.9-5.6l8.5-2l1.1,4.8L42.1,46.8z"/>
		<path id="XMLID_616_" class="st2" d="M57.9,46.8c0.3-3.1,3.9-5.6,3.9-5.6l-8.5-2l-1.1,4.8L57.9,46.8z"/>
		<circle id="XMLID_528_" class="st1" cx="50" cy="41.4" r="3.9"/>
	</g>
	<g id="XMLID_606_">
		<path id="XMLID_646_" class="st7" d="M62.8,27.8c0.9,0,1.8,0.2,2.6,0.5L64.4,27c-1-1.4-2.5-2.3-4.3-2.3c-2.9,0-5.3,2.4-5.3,5.3
			c0,0.3,0,0.6,0.1,1l0.1,0.4v0l0.5,2.5C56.2,30.4,59.2,27.8,62.8,27.8z"/>
		<path id="XMLID_667_" class="st7" d="M67.1,32.9c1.5,0,2.9,0.3,4.2,0.8L69,31c-0.9-1.2-2.1-2.2-3.5-2.7c-0.8-0.3-1.7-0.5-2.6-0.5
			c-3.6,0-6.6,2.6-7.4,6c-0.1,0.5-0.2,1-0.2,1.5c0,0.5,0,0.9,0.1,1.4l0.1,0.5v0l0.6,2.7l0.5,0.1C58.3,35.9,62.3,32.9,67.1,32.9z"/>
		<path id="XMLID_674_" class="st7" d="M73.2,42.2c4.3,0,8.2,1.9,10.8,4.8l0,0l-7.7-9.3c-1.2-1.8-3-3.2-5-4
			c-1.3-0.5-2.7-0.8-4.2-0.8c-4.7,0-8.8,2.9-10.4,7.1l5.1,1.2c0,0-3.6,2.5-3.9,5.6L56,45.9c0,0.1,0,0.2,0,0.3l0.2,0.8v0l2.6,12.5
			c-0.2-0.9-0.3-1.7-0.3-2.6C58.6,48.8,65.1,42.2,73.2,42.2z"/>
		<path id="XMLID_675_" class="st7" d="M59.2,61.2L59.2,61.2c-0.1-0.4-0.1-0.7-0.2-1L59.2,61.2z"/>
		<path id="XMLID_676_" class="st7" d="M44.5,33.8l0.5-2.5v0l0.1-0.4c0.1-0.3,0.1-0.6,0.1-1c0-2.9-2.4-5.3-5.3-5.3
			c-1.8,0-3.4,0.9-4.3,2.3l-1.1,1.3c0.8-0.3,1.7-0.5,2.6-0.5C40.8,27.8,43.8,30.4,44.5,33.8z"/>
		<path id="XMLID_677_" class="st7" d="M43.3,40l0.5-0.1l0.6-2.7v0l0.1-0.5c0.1-0.4,0.1-0.9,0.1-1.4c0-0.5-0.1-1-0.2-1.5
			c-0.7-3.4-3.7-6-7.4-6c-0.9,0-1.8,0.2-2.6,0.5c-1.4,0.5-2.7,1.5-3.5,2.7l-2.3,2.8c1.3-0.5,2.7-0.8,4.2-0.8
			C37.6,32.9,41.7,35.9,43.3,40z"/>
		<path id="XMLID_678_" class="st7" d="M38.3,41.2l5.1-1.2c-1.7-4.2-5.7-7.1-10.4-7.1c-1.5,0-2.9,0.3-4.2,0.8c-2,0.8-3.8,2.2-5,4
			l-7.7,9.3l0,0c2.7-2.9,6.5-4.8,10.8-4.8c8.1,0,14.6,6.6,14.6,14.6c0,0.9-0.1,1.8-0.3,2.6L43.8,47v0l0.2-0.8c0-0.1,0-0.2,0-0.3
			l-1.9,0.9C41.9,43.7,38.3,41.2,38.3,41.2z"/>
		<path id="XMLID_679_" class="st7" d="M40.8,61.2l0.2-1C40.9,60.5,40.9,60.9,40.8,61.2L40.8,61.2z"/>
		<path id="XMLID_680_" class="st7" d="M26.8,42.2c-4.3,0-8.2,1.9-10.8,4.8c-2.4,2.6-3.8,6-3.8,9.8c0,8.1,6.6,14.6,14.6,14.6
			c6.6,0,12.1-4.3,14-10.3c0.1-0.3,0.2-0.7,0.3-1c0.1-0.2,0.1-0.4,0.1-0.7c0.2-0.9,0.3-1.7,0.3-2.6C41.4,48.8,34.9,42.2,26.8,42.2z"
			/>
		<path id="XMLID_681_" class="st7" d="M84,47.1c-2.7-2.9-6.5-4.8-10.8-4.8c-8.1,0-14.6,6.6-14.6,14.6c0,0.9,0.1,1.8,0.3,2.6
			c0,0.2,0.1,0.4,0.1,0.7c0.1,0.3,0.2,0.7,0.3,1c1.8,6,7.4,10.3,14,10.3c8.1,0,14.6-6.6,14.6-14.6C87.8,53.1,86.4,49.7,84,47.1z"/>
		<path id="XMLID_682_" class="st7" d="M46.1,41.4c0-0.8,0.2-1.5,0.6-2.1l-2.9,0.7L43.3,40l-5.1,1.2c0,0,3.6,2.5,3.9,5.6l1.9-0.9
			l3.4-1.6C46.6,43.6,46.1,42.5,46.1,41.4z"/>
		<path id="XMLID_683_" class="st7" d="M61.7,41.2L56.6,40l-0.5-0.1l-2.9-0.7c0.4,0.6,0.6,1.3,0.6,2.1c0,1.2-0.5,2.2-1.3,2.9
			l3.4,1.6l1.9,0.9C58.1,43.7,61.7,41.2,61.7,41.2z"/>
		<path id="XMLID_684_" class="st7" d="M53.9,41.4c0-0.8-0.2-1.5-0.6-2.1c-0.7-1.1-1.9-1.8-3.3-1.8c-1.4,0-2.6,0.7-3.3,1.8
			c-0.4,0.6-0.6,1.3-0.6,2.1c0,1.2,0.5,2.2,1.3,2.9c0.7,0.6,1.6,1,2.6,1c1,0,1.9-0.4,2.6-1C53.4,43.6,53.9,42.5,53.9,41.4z"/>
	</g>
</g>
</svg>
