<?xml version="1.0" encoding="utf-8"?>
<!-- Generator: Adobe Illustrator 19.0.0, SVG Export Plug-In . SVG Version: 6.00 Build 0)  -->
<svg version="1.1" id="Layer_1" xmlns="http://www.w3.org/2000/svg" xmlns:xlink="http://www.w3.org/1999/xlink" x="0px" y="0px"
	 viewBox="0 0 128 128" style="enable-background:new 0 0 128 128;" xml:space="preserve">
<style type="text/css">
	.st0{fill:#DADEE6;}
	.st1{fill:#576988;}
	.st2{opacity:0.3;fill:#FFFFFF;}
	.st3{fill:#C8D1DD;}
	.st4{fill:#AFBBCD;}
	.st5{opacity:0.6;fill:none;stroke:#FFFFFF;stroke-width:2;stroke-linecap:round;stroke-miterlimit:10;}
	.st6{fill:#FF9C00;}
	.st7{fill:#FFBE08;}
	.st8{fill:#343D4F;}
	.st9{fill:none;stroke:#343D4F;stroke-width:2;stroke-miterlimit:10;}
</style>
<g id="XMLID_2_">
	<circle id="XMLID_256_" class="st0" cx="64" cy="64" r="64"/>
	<g id="XMLID_158_">
		<rect id="XMLID_181_" x="32.1" y="22.4" class="st1" width="63.8" height="8.2"/>
		<rect id="XMLID_33_" x="74.1" y="22.4" class="st2" width="5.5" height="8.2"/>
		<rect id="XMLID_205_" x="82.3" y="22.4" class="st2" width="2.7" height="8.2"/>
		<path id="XMLID_180_" class="st3" d="M87.2,86.7L89,97.4H39l0.8-4.4c0,0,0,0,0,0l1.1-6.2c0.2-1.3,0.5-2.5,0.9-3.7
			c2.4-7.1,7.8-12.9,14.9-15.7v-6.7c-8.3-3.3-14.3-10.6-15.8-19.4L39,30.6h50l-1.9,10.7c-1.5,8.8-7.5,16.1-15.8,19.4v6.7
			c8,3.1,13.8,10,15.6,18.4C87,86,87.1,86.4,87.2,86.7z"/>
		<path id="XMLID_220_" class="st4" d="M61.1,60.7v6.7C54,70.1,50.8,75.9,48.5,83c-0.4,1.2-0.7,2.4-0.9,3.7l-1.1,6.2c0,0,0,0,0,0
			l-0.8,4.4H39l0.8-4.4c0,0,0,0,0,0l1.1-6.2c0.2-1.3,0.5-2.5,0.9-3.7c2.4-7.1,7.8-12.9,14.9-15.7v-6.7c-8.3-3.3-14.3-10.6-15.9-19.4
			L39,30.6h6.7l1.9,10.7C49.1,50.1,52.8,57.4,61.1,60.7z"/>
		<path id="XMLID_40_" class="st4" d="M66.9,60.7v6.7C74,70.1,77.2,75.9,79.5,83c0.4,1.2,0.7,2.4,0.9,3.7l1.1,6.2c0,0,0,0,0,0
			l0.8,4.4H89l-0.8-4.4c0,0,0,0,0,0l-1.1-6.2c-0.2-1.3-0.5-2.5-0.9-3.7c-2.4-7.1-7.8-12.9-14.9-15.7v-6.7
			c8.3-3.3,14.3-10.6,15.9-19.4L89,30.6h-6.7l-1.9,10.7C79,50.1,75.2,57.4,66.9,60.7z"/>
		<line id="XMLID_152_" class="st5" x1="40.3" y1="35.7" x2="48.3" y2="35.7"/>
		<g id="XMLID_8_">
			<path id="XMLID_235_" class="st6" d="M88.3,97.4H39.7c0-13.4,10.9-24.3,24.3-24.3C77.4,73.1,88.3,83.9,88.3,97.4z"/>
			<rect id="XMLID_41_" x="61.1" y="60.1" class="st6" width="5.8" height="13.8"/>
			<path id="XMLID_237_" class="st6" d="M48.8,54.3h30.6c0,0-5.2,6.5-15.4,6.5S48.8,54.3,48.8,54.3z"/>
			<path id="XMLID_29_" class="st7" d="M83.8,97.4H44.2c0-10.9,8.8-19.8,19.8-19.8C74.9,77.6,83.8,86.5,83.8,97.4z"/>
		</g>
		<line id="XMLID_44_" class="st5" x1="52.5" y1="35.7" x2="56.7" y2="35.7"/>
		<g id="XMLID_39_">
			<path id="XMLID_42_" class="st8" d="M62.5,90.8c0-1.1,0.9-1.6,2.4-1.6c1.8,0,3.7,0.6,5.6,1.8v-5.5c-1.3-0.7-2.5-1.2-3.9-1.4v-3.8
				h-4.8v3.9c-2.8,0.8-5.1,2.8-5.1,6.6c0,3.9,2.4,5.5,4.7,6.5h9.8C69.3,92.8,62.5,93.2,62.5,90.8z"/>
		</g>
		<line id="XMLID_35_" class="st5" x1="41.1" y1="40.5" x2="52.9" y2="40.5"/>
		<rect id="XMLID_1_" x="32.1" y="97.4" class="st1" width="63.8" height="8.2"/>
		<rect id="XMLID_155_" x="32.1" y="22.4" class="st9" width="63.8" height="8.2"/>
		<rect id="XMLID_222_" x="74.1" y="97.4" class="st2" width="5.5" height="8.2"/>
		<rect id="XMLID_215_" x="82.3" y="97.4" class="st2" width="2.7" height="8.2"/>
		<path id="XMLID_121_" class="st9" d="M87.2,86.7L89,97.4H39l0.8-4.4c0,0,0,0,0,0l1.1-6.2c0.2-1.3,0.5-2.5,0.9-3.7
			c2.4-7.1,7.8-12.9,14.9-15.7v-6.7c-8.3-3.3-14.3-10.6-15.8-19.4L39,30.6h50l-1.9,10.7c-1.5,8.8-7.5,16.1-15.8,19.4v6.7
			c8,3.1,13.8,10,15.6,18.4C87,86,87.1,86.4,87.2,86.7z"/>
		<rect id="XMLID_24_" x="32.1" y="97.4" class="st9" width="63.8" height="8.2"/>
		<path id="XMLID_248_" class="st9" d="M88.3,97.4H39.7c0-12.5,9.4-22.7,21.4-24.2V61.6c-8.2-1.1-12.3-6.3-12.3-6.3h30.6
			c0,0-4.3,5.3-12.5,6.3v11.6C79,74.7,88.3,84.9,88.3,97.4z"/>
	</g>
</g>
</svg>
