<?xml version="1.0" encoding="utf-8"?>
<!-- Generator: Adobe Illustrator 19.0.0, SVG Export Plug-In . SVG Version: 6.00 Build 0)  -->
<svg version="1.1" id="Layer_1" xmlns="http://www.w3.org/2000/svg" xmlns:xlink="http://www.w3.org/1999/xlink" x="0px" y="0px"
	 viewBox="0 0 100 100" style="enable-background:new 0 0 100 100;" xml:space="preserve">
<style type="text/css">
	.st0{fill:#DADEE6;}
	.st1{fill:#576988;}
	.st2{fill:#46556D;}
	.st3{fill:#7D90AD;}
	.st4{fill:none;stroke:#343D4F;stroke-width:2;stroke-miterlimit:10;}
	.st5{fill:#FFB300;}
	.st6{fill:#343D4F;}
	.st7{opacity:0.3;fill:#FFFFFF;}
</style>
<circle id="XMLID_415_" class="st0" cx="50" cy="50" r="50"/>
<g id="XMLID_380_">
	
		<rect id="XMLID_378_" x="59" y="57.7" transform="matrix(0.7071 -0.7071 0.7071 0.7071 -25.8693 62.454)" class="st1" width="6.9" height="9.6"/>
	<path id="XMLID_377_" class="st2" d="M63.1,63.1L63.1,63.1c-1.9,1.9-1.9,5,0,6.9l9.9,9.9c1.9,1.9,5,1.9,6.9,0l0,0
		c1.9-1.9,1.9-5,0-6.9L70,63.1C68.1,61.2,65,61.2,63.1,63.1z"/>
	<circle id="XMLID_376_" class="st3" cx="42.7" cy="42.7" r="24"/>
	<g id="XMLID_374_">
		<g id="XMLID_68_">
			<path id="XMLID_72_" class="st4" d="M63.1,63.1c1-1,2.2-1.4,3.5-1.4L61.9,57c-0.7,0.9-1.4,1.8-2.2,2.6c-0.8,0.8-1.7,1.6-2.6,2.2
				l4.7,4.7C61.6,65.3,62.1,64,63.1,63.1z"/>
			<path id="XMLID_71_" class="st4" d="M79.9,73L70,63.1c-0.9-0.9-2.2-1.4-3.4-1.4c-1.3,0-2.5,0.5-3.5,1.4c-1,1-1.4,2.2-1.4,3.5
				c0,1.2,0.5,2.5,1.4,3.4l9.9,9.9c1.9,1.9,5,1.9,6.9,0C81.8,78,81.8,74.9,79.9,73z"/>
			<g id="XMLID_69_">
				<path id="XMLID_70_" class="st4" d="M61.9,57c7-9.4,6.3-22.7-2.2-31.2c-9.4-9.4-24.5-9.4-33.9,0s-9.4,24.5,0,33.9
					c8.5,8.5,21.9,9.3,31.2,2.2c0.9-0.7,1.8-1.4,2.6-2.2C60.4,58.8,61.2,57.9,61.9,57z"/>
			</g>
		</g>
	</g>
	<circle id="XMLID_416_" class="st5" cx="42.7" cy="42.7" r="16.2"/>
	<g id="XMLID_370_">
		<g id="XMLID_44_">
			<path id="XMLID_47_" class="st4" d="M58.8,41.9c0.2,4.4-1.3,8.9-4.7,12.2c-4.6,4.6-11.3,5.8-17.1,3.7"/>
			<g id="XMLID_45_">
				<polygon id="XMLID_46_" class="st6" points="55.8,46.2 58.8,42.4 62.6,45.4 62.2,42.6 58.5,39.6 55.5,43.3 				"/>
			</g>
		</g>
	</g>
	<line id="XMLID_369_" class="st4" x1="32.1" y1="57.6" x2="34.7" y2="54.3"/>
	<line id="XMLID_368_" class="st4" x1="56.9" y1="31.2" x2="53.6" y2="33.7"/>
	<line id="XMLID_367_" class="st4" x1="59.2" y1="35.3" x2="55.4" y2="37.1"/>
	<g id="XMLID_356_">
		<g id="XMLID_39_">
			<path id="XMLID_42_" class="st4" d="M26.7,43.3c-0.2-4.4,1.3-8.9,4.7-12.2c4.6-4.6,11.3-5.8,17.1-3.7"/>
			<g id="XMLID_40_">
				<polygon id="XMLID_41_" class="st6" points="29.6,39 26.6,42.8 22.9,39.8 23.2,42.6 26.9,45.6 30,41.9 				"/>
			</g>
		</g>
	</g>
	<line id="XMLID_355_" class="st4" x1="53.5" y1="27.7" x2="51" y2="31.1"/>
	<line id="XMLID_354_" class="st4" x1="28.7" y1="54.2" x2="32" y2="51.6"/>
	<line id="XMLID_353_" class="st4" x1="26.3" y1="49.9" x2="30" y2="48.1"/>
	<circle id="XMLID_347_" class="st7" cx="42.5" cy="44.3" r="7.1"/>
	<circle id="XMLID_346_" class="st7" cx="38.3" cy="40" r="3.9"/>
	<polyline id="XMLID_379_" class="st4" points="51,35.8 42.7,44.1 37.9,39.3 	"/>
	<circle id="XMLID_375_" class="st6" cx="42.7" cy="43.7" r="2.6"/>
</g>
</svg>
