<?xml version="1.0" encoding="utf-8"?>
<!-- Generator: Adobe Illustrator 19.0.0, SVG Export Plug-In . SVG Version: 6.00 Build 0)  -->
<svg version="1.1" id="Layer_1" xmlns="http://www.w3.org/2000/svg" xmlns:xlink="http://www.w3.org/1999/xlink" x="0px" y="0px"
	 viewBox="0 0 100 100" style="enable-background:new 0 0 100 100;" xml:space="preserve">
<style type="text/css">
	.st0{fill:#DADEE6;}
	.st1{fill:#576988;}
	.st2{fill:#FFB300;}
	.st3{fill:none;stroke:#343D4F;stroke-width:2;stroke-miterlimit:10;}
	.st4{fill:#95A5BD;}
	.st5{fill:#7D90AD;}
	.st6{opacity:0.5;fill:#DADEE6;}
</style>
<circle id="XMLID_538_" class="st0" cx="50" cy="50" r="50"/>
<g id="XMLID_535_">
	<polygon id="XMLID_521_" class="st1" points="34.1,25.2 26.3,25.2 26.3,30.4 30.2,38.1 34.1,38.1 	"/>
	<polygon id="XMLID_519_" class="st2" points="34.1,43 26.3,43 26.3,48.2 30.2,55.9 34.1,55.9 	"/>
	<polygon id="XMLID_516_" class="st1" points="34.1,60.7 26.3,60.7 26.3,66 30.2,73.7 34.1,73.7 	"/>
	<polyline id="XMLID_497_" class="st3" points="34.1,29.8 34.1,25.2 26.3,25.2 26.3,30.4 30.2,38.1 34.1,38.1 34.1,35.1 	"/>
	<polyline id="XMLID_494_" class="st3" points="34.1,43 26.3,43 26.3,48.2 30.2,55.9 34.1,55.9 	"/>
	<polyline id="XMLID_486_" class="st3" points="34.1,60.7 26.3,60.7 26.3,66 30.2,73.7 34.1,73.7 	"/>
	<polygon id="XMLID_515_" class="st4" points="65.9,22.4 65.9,77.6 60.6,77.6 58.6,81.9 41.4,81.9 39.4,77.6 34.1,77.6 34.1,22.4 
		39.4,22.4 41.4,18.1 58.6,18.1 60.6,22.4 	"/>
	<polygon id="XMLID_479_" class="st5" points="42,81.9 58.6,81.9 60.3,77.8 39.8,77.8 	"/>
	<circle id="XMLID_514_" class="st5" cx="50" cy="31.6" r="7.3"/>
	<circle id="XMLID_513_" class="st6" cx="48.3" cy="29.4" r="1.7"/>
	<circle id="XMLID_512_" class="st6" cx="53.1" cy="34.1" r="1"/>
	<circle id="XMLID_510_" class="st2" cx="50" cy="49.4" r="7.3"/>
	<circle id="XMLID_509_" class="st6" cx="48.3" cy="47.2" r="1.7"/>
	<circle id="XMLID_505_" class="st6" cx="53.1" cy="52" r="1"/>
	<circle id="XMLID_503_" class="st5" cx="50" cy="67.2" r="7.3"/>
	<circle id="XMLID_500_" class="st6" cx="48.3" cy="65" r="1.7"/>
	<circle id="XMLID_499_" class="st6" cx="53.1" cy="69.8" r="1"/>
	<polygon id="XMLID_498_" class="st1" points="65.9,25.2 73.7,25.2 73.7,30.4 69.8,38.1 65.9,38.1 	"/>
	<polygon id="XMLID_495_" class="st2" points="65.9,43 73.7,43 73.7,48.2 69.8,55.9 65.9,55.9 	"/>
	<polygon id="XMLID_488_" class="st1" points="65.9,60.7 73.7,60.7 73.7,66 69.8,73.7 65.9,73.7 	"/>
	<polyline id="XMLID_537_" class="st3" points="34.1,62.3 34.1,22.4 39.4,22.4 41.4,18.1 58.6,18.1 60.6,22.4 65.9,22.4 65.9,29.8 	
		"/>
	<polyline id="XMLID_522_" class="st3" points="65.9,35.1 65.9,77.6 60.6,77.6 58.6,81.9 41.4,81.9 39.4,77.6 34.1,77.6 34.1,68.5 	
		"/>
	<circle id="XMLID_533_" class="st3" cx="50" cy="31.6" r="7.3"/>
	<circle id="XMLID_532_" class="st3" cx="50" cy="49.4" r="7.3"/>
	<circle id="XMLID_523_" class="st3" cx="50" cy="67.2" r="7.3"/>
	<polyline id="XMLID_529_" class="st3" points="65.9,29.8 65.9,25.2 73.7,25.2 73.7,30.4 69.8,38.1 65.9,38.1 65.9,35.1 	"/>
	<polyline id="XMLID_520_" class="st3" points="65.9,43 73.7,43 73.7,48.2 69.8,55.9 65.9,55.9 	"/>
	<path id="XMLID_536_" class="st3" d="M65.9,60.7"/>
	<path id="XMLID_534_" class="st3" d="M65.9,73.7"/>
	<polyline id="XMLID_518_" class="st3" points="65.9,60.7 73.7,60.7 73.7,66 69.8,73.7 65.9,73.7 	"/>
	<line id="XMLID_477_" class="st3" x1="39.4" y1="22.4" x2="44.6" y2="22.4"/>
	<line id="XMLID_531_" class="st3" x1="60.6" y1="77.6" x2="39.4" y2="77.6"/>
</g>
</svg>
