<?xml version="1.0" encoding="utf-8"?>
<!-- Generator: Adobe Illustrator 19.0.0, SVG Export Plug-In . SVG Version: 6.00 Build 0)  -->
<svg version="1.1" id="Layer_1" xmlns="http://www.w3.org/2000/svg" xmlns:xlink="http://www.w3.org/1999/xlink" x="0px" y="0px"
	 viewBox="0 0 128 128" style="enable-background:new 0 0 128 128;" xml:space="preserve">
<style type="text/css">
	.st0{fill:#DADEE6;}
	.st1{fill:#FFFFFF;}
	.st2{fill:#AFBBCD;}
	.st3{fill:#95A5BD;}
	.st4{fill:#7D90AD;}
	.st5{fill:#FFBE08;}
	.st6{fill:#FF9C00;}
	.st7{fill:none;stroke:#343D4F;stroke-width:2;stroke-miterlimit:10;}
	.st8{opacity:0.5;fill:none;stroke:#FFFFFF;stroke-width:2;stroke-linecap:round;stroke-miterlimit:10;}
	.st9{fill:#677D9D;}
</style>
<circle id="XMLID_28158_" class="st0" cx="64" cy="64" r="64"/>
<g id="XMLID_120_">
	<path id="XMLID_119_" class="st1" d="M89.4,22.3h-5.6c-6.9,0-12.5,5.6-12.5,12.5v0c0,6.9,5.6,12.5,12.5,12.5h5.6
		c6.9,0,12.5-5.6,12.5-12.5v0C102,27.9,96.4,22.3,89.4,22.3z"/>
	<polygon id="XMLID_118_" class="st2" points="92,78.2 71.3,78.2 71.3,28.5 102,28.5 102,49 	"/>
	<polygon id="XMLID_117_" class="st3" points="84.8,78.2 71.3,78.2 71.3,28.5 94.8,28.5 94.8,49 	"/>
	<rect id="XMLID_115_" x="71.3" y="28.5" class="st4" width="8.7" height="49.7"/>
	<path id="XMLID_114_" class="st1" d="M38.6,22.3h5.6c6.9,0,12.5,5.6,12.5,12.5v0c0,6.9-5.6,12.5-12.5,12.5h-5.6
		c-6.9,0-12.5-5.6-12.5-12.5v0C26,27.9,31.6,22.3,38.6,22.3z"/>
	<polygon id="XMLID_113_" class="st4" points="36,78.2 56.7,78.2 56.7,28.5 26,28.5 26,49 	"/>
	<polygon id="XMLID_112_" class="st3" points="43.2,78.2 56.7,78.2 56.7,28.5 33.2,28.5 33.2,49 	"/>
	<rect id="XMLID_110_" x="48" y="28.5" class="st2" width="8.7" height="49.7"/>
	<rect id="XMLID_93_" x="38.9" y="78.2" class="st5" width="48.6" height="14.2"/>
	<rect id="XMLID_92_" x="38.9" y="85.3" class="st6" width="48.6" height="7.1"/>
	<rect id="XMLID_91_" x="70.9" y="92.4" class="st4" width="12.2" height="5.9"/>
	<path id="XMLID_90_" class="st3" d="M83.9,105.7H70.1c-2,0-3.7-1.6-3.7-3.7v0c0-2,1.6-3.7,3.7-3.7h13.7c2,0,3.7,1.6,3.7,3.7v0
		C87.5,104.1,85.9,105.7,83.9,105.7z"/>
	<rect id="XMLID_89_" x="43.4" y="92.4" class="st4" width="12.2" height="5.9"/>
	<path id="XMLID_88_" class="st3" d="M56.3,105.7H42.6c-2,0-3.7-1.6-3.7-3.7v0c0-2,1.6-3.7,3.7-3.7h13.7c2,0,3.7,1.6,3.7,3.7v0
		C60,104.1,58.4,105.7,56.3,105.7z"/>
	<rect id="XMLID_86_" x="56.7" y="54.6" class="st4" width="14.6" height="23.7"/>
	<line id="XMLID_84_" class="st7" x1="64" y1="54.6" x2="64" y2="50.1"/>
	<g id="XMLID_22_">
		<line id="XMLID_83_" class="st8" x1="80.6" y1="88.2" x2="80.6" y2="82.5"/>
		<line id="XMLID_81_" class="st8" x1="73.7" y1="88.2" x2="73.7" y2="82.5"/>
		<line id="XMLID_78_" class="st8" x1="66.7" y1="88.2" x2="66.7" y2="82.5"/>
		<line id="XMLID_76_" class="st8" x1="59.8" y1="88.2" x2="59.8" y2="82.5"/>
		<line id="XMLID_75_" class="st8" x1="52.9" y1="88.2" x2="52.9" y2="82.5"/>
		<line id="XMLID_73_" class="st8" x1="45.9" y1="88.2" x2="45.9" y2="82.5"/>
	</g>
	<line id="XMLID_65_" class="st7" x1="61" y1="50.1" x2="67" y2="50.1"/>
	<rect id="XMLID_111_" x="26" y="28.5" class="st9" width="30.6" height="6.1"/>
	<rect id="XMLID_116_" x="71.3" y="28.5" class="st9" width="30.6" height="6.1"/>
</g>
<g id="XMLID_165_">
	<path id="XMLID_166_" class="st7" d="M89.4,22.3h-5.6c-4.6,0-8.6,2.5-10.8,6.2h27.2C98.1,24.8,94.1,22.3,89.4,22.3z"/>
	<polygon id="XMLID_167_" class="st7" points="71.3,34.6 71.3,54.6 71.3,78.2 87.5,78.2 92,78.2 102,49 102,34.6 	"/>
	<path id="XMLID_168_" class="st7" d="M44.2,22.3h-5.6c-4.6,0-8.6,2.5-10.8,6.2H55C52.8,24.8,48.8,22.3,44.2,22.3z"/>
	<polygon id="XMLID_169_" class="st7" points="56.7,54.6 56.7,34.6 26,34.6 26,49 36,78.2 38.9,78.2 56.7,78.2 	"/>
	<polygon id="XMLID_170_" class="st7" points="56.7,78.2 38.9,78.2 38.9,92.4 43.4,92.4 55.5,92.4 70.9,92.4 83.1,92.4 87.5,92.4 
		87.5,78.2 71.3,78.2 	"/>
	<rect id="XMLID_171_" x="70.9" y="92.4" class="st7" width="12.2" height="5.9"/>
	<path id="XMLID_172_" class="st7" d="M70.1,98.3c-2,0-3.7,1.6-3.7,3.7c0,2,1.6,3.7,3.7,3.7h13.7c2,0,3.7-1.6,3.7-3.7
		c0-2-1.6-3.7-3.7-3.7h-0.8H70.9H70.1z"/>
	<rect id="XMLID_173_" x="43.4" y="92.4" class="st7" width="12.2" height="5.9"/>
	<path id="XMLID_174_" class="st7" d="M42.6,98.3c-2,0-3.7,1.6-3.7,3.7c0,2,1.6,3.7,3.7,3.7h13.7c2,0,3.7-1.6,3.7-3.7
		c0-2-1.6-3.7-3.7-3.7h-0.8H43.4H42.6z"/>
	<rect id="XMLID_175_" x="56.7" y="54.6" class="st7" width="14.6" height="23.7"/>
	<polygon id="XMLID_176_" class="st7" points="56.7,34.6 56.7,28.5 55,28.5 27.7,28.5 26,28.5 26,34.6 	"/>
	<polygon id="XMLID_177_" class="st7" points="100.3,28.5 73,28.5 71.3,28.5 71.3,34.6 102,34.6 102,28.5 	"/>
</g>
</svg>
